/* XPM */
static char * close_inactive_xpm[] = {
"29 29 3 1",
" 	c None",
".	c #55af66",
"+	c #000000",
".............................",
".+++++++++++++++++++++++++++.",
".+++++++++++++++++++++++++++.",
".+++++++++++++++++++++++++++.",
".+++++++++++++++++++++++++++.",
".+++++++++++++++++++++++++++.",
".+++++++++++++++++++++++++++.",
".+++++++++++++++++++++++++++.",
".+++++++..++++++++++.+++++++.",
".+++++++...++++++++.++++++++.",
".++++++++...++++++.+++++++++.",
".+++++++++...++++.++++++++++.",
".++++++++++...++.+++++++++++.",
".+++++++++++....++++++++++++.",
".++++++++++++...++++++++++++.",
".++++++++++++....+++++++++++.",
".+++++++++++.++...++++++++++.",
".++++++++++.++++...+++++++++.",
".+++++++++.++++++...++++++++.",
".++++++++.++++++++...+++++++.",
".+++++++.++++++++++..+++++++.",
".+++++++++++++++++++++++++++.",
".+++++++++++++++++++++++++++.",
".+++++++++++++++++++++++++++.",
".+++++++++++++++++++++++++++.",
".+++++++++++++++++++++++++++.",
".+++++++++++++++++++++++++++.",
".+++++++++++++++++++++++++++.",
"............................."};
