/* XPM */
static char * maximize_toggled_active_xpm[] = {
"29 29 3 1",
" 	c None",
".	c #55af66",
"+	c #000000",
".............................",
".+++++++++++++++++++++++++++.",
".+++++++++++++++++++++++++++.",
".+++++++++++++++++++++++++++.",
".+++++++++++++++++++++++++++.",
".+++++++++++++++++++++++++++.",
".+++++++++.............+++++.",
".+++++++++.............+++++.",
".+++++++++.............+++++.",
".+++++++++.+++++++++++.+++++.",
".+++++.............+++.+++++.",
".+++++.............+++.+++++.",
".+++++.............+++.+++++.",
".+++++.+++++++++++.+++.+++++.",
".+++++.+++++++++++.+++.+++++.",
".+++++.+++++++++++.+++.+++++.",
".+++++.+++++++++++.+++.+++++.",
".+++++.+++++++++++.+++.+++++.",
".+++++.+++++++++++.....+++++.",
".+++++.+++++++++++.+++++++++.",
".+++++.+++++++++++.+++++++++.",
".+++++.+++++++++++.+++++++++.",
".+++++.............+++++++++.",
".+++++++++++++++++++++++++++.",
".+++++++++++++++++++++++++++.",
".+++++++++++++++++++++++++++.",
".+++++++++++++++++++++++++++.",
".+++++++++++++++++++++++++++.",
"............................."};
